<svg xmlns="http://www.w3.org/2000/svg" aria-hidden="true" style="position:absolute;width:0;height:0;overflow:hidden">
  <defs>
    <symbol id="icon-text-leleka" viewBox="0 0 150 32">
      <path d="M137.614 31.735q-2.951 0-5.296-1.456-2.345-1.495-3.719-4.002-1.334-2.547-1.334-5.741c0-3.194.485-4.043 1.455-5.741q1.495-2.547 4.002-4.002 2.547-1.496 5.7-1.496c3.153 0 3.989.499 5.66 1.496a10.65 10.65 0 0 1 3.962 4.002q1.496 2.547 1.496 5.741h-1.577q0 3.194-1.375 5.741-1.334 2.506-3.679 4.002-2.344 1.456-5.296 1.456zm.808-3.638q2.062 0 3.679-.97a7.24 7.24 0 0 0 2.547-2.709q.93-1.739.93-3.881 0-2.183-.93-3.881-.93-1.738-2.547-2.709-1.617-1.011-3.679-1.011-2.021 0-3.679 1.011-1.617.97-2.588 2.709-.93 1.698-.93 3.881 0 2.142.93 3.881a7.56 7.56 0 0 0 2.588 2.709q1.657.97 3.679.97m9.056 3.517q-.889 0-1.496-.566-.566-.606-.566-1.496v-6.185l.768-4.285 3.355 1.455v9.015q0 .89-.606 1.496-.566.566-1.456.566zM124.308 31.09q-.525.485-1.496.485-.93-.04-1.456-.566l-9.824-10.552 9.258-10.349q.525-.566 1.455-.647.97-.08 1.496.404.606.566.687 1.294.081.687-.445 1.253l-7.317 7.843 7.762 8.328q.525.525.526 1.253 0 .687-.647 1.253zm-16.009.525q-.889 0-1.415-.566-.525-.606-.526-1.496V11.522q0-.93.526-1.496c.526-.566.822-.566 1.415-.566q.93 0 1.496.566.606.566.607 1.496v6.751h5.175v3.8h-5.175v7.479q0 .89-.607 1.496-.566.566-1.496.566zM91.233 31.735q-3.355 0-5.983-1.415a10.87 10.87 0 0 1-4.083-3.962q-1.456-2.547-1.456-5.821 0-3.315 1.375-5.822 1.415-2.547 3.881-3.962 2.466-1.455 5.66-1.455 3.153 0 5.417 1.415 2.264 1.374 3.436 3.841 1.213 2.425 1.213 5.619 0 .768-.526 1.294-.525.485-1.334.485H82.541v-3.234h16.171l-1.658 1.132q-.04-2.022-.809-3.598-.768-1.617-2.183-2.547c-1.415-.93-2.089-.93-3.436-.93q-2.304 0-3.962 1.011-1.617 1.011-2.466 2.789-.849 1.739-.849 3.962c0 2.223.337 2.803 1.011 3.962q1.011 1.738 2.79 2.749c1.779 1.011 2.547 1.011 4.083 1.011q1.252 0 2.547-.445 1.333-.485 2.143-1.091.606-.445 1.294-.445.728-.04 1.253.404.687.606.728 1.334c.041.728-.189.903-.647 1.253q-1.374 1.092-3.437 1.779-2.02.687-3.881.687M65.001 9.5q.606 0 1.092.323c.486.323.579.553.768 1.011l8.328 18.071q.364.809.081 1.455-.283.606-.97.93-.89.404-1.536.202c-.646-.202-.795-.472-1.092-1.011l-7.6-17.263h2.062l-7.843 17.263q-.365.768-1.092 1.011-.687.202-1.536-.202-.768-.364-1.091-.97-.283-.606.121-1.415l8.368-18.071q.606-1.334 1.94-1.334M41.589 31.735q-3.355 0-5.983-1.415a10.87 10.87 0 0 1-4.083-3.962q-1.456-2.547-1.456-5.821 0-3.315 1.375-5.822 1.415-2.547 3.881-3.962 2.466-1.455 5.66-1.455 3.153 0 5.417 1.415 2.264 1.374 3.436 3.841 1.213 2.425 1.213 5.619 0 .768-.526 1.294-.525.485-1.334.485H32.897v-3.234h16.171L47.41 19.85q-.04-2.022-.809-3.598-.768-1.617-2.183-2.547c-1.415-.93-2.089-.93-3.437-.93q-2.304 0-3.962 1.011-1.617 1.011-2.466 2.789-.849 1.739-.849 3.962c0 2.223.337 2.803 1.011 3.962q1.01 1.738 2.789 2.749c1.779 1.011 2.547 1.011 4.083 1.011q1.252 0 2.547-.445 1.334-.485 2.143-1.091.606-.445 1.294-.445.728-.04 1.253.404.687.606.728 1.334c.041.728-.189.903-.647 1.253q-1.374 1.092-3.436 1.779-2.021.687-3.881.687zM2.075 31.574q-1.132 0-1.738-.97c-.606-.97-.445-1.334-.121-2.062l11.36-27.127Q12.182 0 13.557 0q1.455 0 1.981 1.415l11.401 27.208q.444 1.132-.121 2.062-.525.89-1.698.889-.606 0-1.172-.323a2.1 2.1 0 0 1-.768-.97L13.073 5.377h1.294L4.018 30.281a2 2 0 0 1-.849.97 2.05 2.05 0 0 1-1.092.323z"/>
    </symbol>
    <symbol id="icon-icon-leleka" viewBox="0 0 32 32">
      <path fill="#33adc1" d="M31.596 15.798c0 8.725-7.073 15.798-15.798 15.798q-.492 0-.975-.03a15.7 15.7 0 0 1-5.281-1.257C3.928 27.886-.001 22.301-.001 15.798-.001 7.073 7.072 0 15.797 0s15.798 7.073 15.798 15.798z" style="fill:var(--color1, #33adc1)"/>
      <path fill="#eae0d3" d="M14.823 31.566a15.7 15.7 0 0 1-5.28-1.257c6.118-8.248-4.473-16.104-4.473-16.104l5.34-1.318s11.428 6.971 4.414 18.679z" style="fill:var(--color2, #eae0d3)"/>
      <path fill="#d6c8b0" d="M10.927 30.83a16 16 0 0 1-1.384-.521c6.118-8.248-4.473-16.104-4.473-16.104l1.543-.381c.374.28.898.644 1.432 1.144 2.786 2.602 6.827 8.139 2.881 15.862z" style="fill:var(--color3, #d6c8b0)"/>
      <path fill="#eae0d3" d="M14.222 8.792A6.176 6.176 0 1 1 2.553 5.967L.001 3.415l4.182.559-2.145-2.66 4.905 1.401L6.408.001s4.267 2.36 6.294 4.734q.23.264.43.554a6.15 6.15 0 0 1 1.091 3.505z" style="fill:var(--color2, #eae0d3)"/>
      <path fill="#2f373b" d="M11.365 7.531a1.513 1.513 0 1 1-3.026 0 1.513 1.513 0 0 1 3.026 0" style="fill:var(--color4, #2f373b)"/>
      <path fill="#ff648d" d="M25.542 8.53c-.621.324-1.275.251-1.801.077-.614-.203-1.052-.542-1.052-.542s-2.212-2.171-.51-3.116c.514-.285.93-.284 1.26-.142h.001c.764.328 1.071 1.402 1.071 1.402s.616-1.597 1.978-1.113c1.362.483.398 2.731-.947 3.435z" style="fill:var(--color5, #ff648d)"/>
      <path fill="#ea2f69" d="M23.741 8.607c-.614-.203-1.052-.542-1.052-.542s-2.212-2.171-.51-3.116c.514-.285.93-.284 1.26-.142-.753-.042-.777 2.733.302 3.801z" style="fill:var(--color6, #ea2f69)"/>
      <path fill="#fff" d="M10.934 7.048a.473.473 0 1 1-.947 0 .473.473 0 0 1 .947 0" style="fill:var(--color7, #fff)"/>
      <path fill="#ff648d" d="M23.242 9.261c0 2.304-6.271 9.3-2.175 12.199 1.024.725 2.154.961 3.274.908 1.119.053 2.25-.183 3.274-.908 4.096-2.899-2.175-9.895-2.175-12.199z" style="fill:var(--color5, #ff648d)"/>
      <path fill="#ea2f69" d="M24.172 22.373c-1.065.023-2.132-.225-3.105-.913-4.097-2.899 2.175-9.895 2.175-12.199h.672c0 2.304-2.437 9.3-.845 12.199.346.631.724.892 1.103.913M24.173 22.373l.169-.005a1 1 0 0 1-.169.005M24.51 22.373a1 1 0 0 1-.168-.005q.084.004.168.005" style="fill:var(--color6, #ea2f69)"/>
      <path fill="#ffd62c" d="m28.464 8.856-15.63 2.584s-.546-.827-.744-1.924c-.177-.978-.077-2.171.933-3.181z" style="fill:var(--color8, #ffd62c)"/>
      <path fill="#ffb92e" d="m28.464 8.855-15.63 2.584s-.546-.827-.744-1.924z" style="fill:var(--color9, #ffb92e)"/>
      <path fill="#d6c8b0" d="M8.045 14.968a6.176 6.176 0 0 1-5.493-9.001L0 3.415l4.182.559-2.145-2.66 5 2.815S3.949 5.264 3.949 8.856s4.097 6.113 4.097 6.113z" style="fill:var(--color3, #d6c8b0)"/>
    </symbol>
  </defs>
</svg>
